<svg aria-hidden="true" style="position: absolute; width: 0; height: 0; overflow: hidden;" version="1.1" xmlns="http://www.w3.org/2000/svg" xmlns:xlink="http://www.w3.org/1999/xlink">
<defs>
<symbol id="icon-about-3" viewBox="0 0 32 32">
<path fill="#ec7979" style="fill: var(--color1, #ec7979)" d="M14.255 22.176c-0.090-0.040-0.163-0.106-0.209-0.189l-0.001-0.002c-0.035-0.063-0.056-0.137-0.056-0.217 0-0.023 0.002-0.046 0.005-0.069l-0 0.003 0.793-5.258h-2.104c-0.003 0-0.007 0-0.011 0-0.066 0-0.129-0.015-0.185-0.042l0.003 0.001c-0.062-0.030-0.115-0.071-0.156-0.122l-0.001-0.001c-0.061-0.076-0.097-0.174-0.097-0.28 0-0.036 0.004-0.071 0.012-0.105l-0.001 0.003 1.307-5.768c0.023-0.099 0.079-0.187 0.158-0.25s0.177-0.095 0.277-0.092h4.356c0 0 0.001 0 0.002 0 0.068 0 0.132 0.016 0.189 0.044l-0.003-0.001c0.059 0.028 0.111 0.070 0.152 0.121 0.061 0.076 0.098 0.174 0.098 0.28 0 0.034-0.004 0.068-0.011 0.1l0.001-0.003-0.754 3.452h2.069c0.082-0 0.162 0.023 0.231 0.067s0.125 0.107 0.161 0.181c0.024 0.053 0.038 0.115 0.038 0.18 0 0.099-0.032 0.191-0.086 0.265l0.001-0.001-5.663 7.543c-0.038 0.058-0.089 0.105-0.147 0.138l-0.002 0.001c-0.056 0.032-0.123 0.053-0.194 0.056l-0.001 0c-0.062-0.001-0.12-0.014-0.173-0.037l0.003 0.001zM16.93 14.669l0.871-3.993h-3.463l-1.107 4.881h2.575l-0.693 4.561 4.104-5.448h-2.287z"></path>
</symbol>
<symbol id="icon-about-2" viewBox="0 0 32 32">
<path fill="#ec7979" style="fill: var(--color1, #ec7979)" d="M20.814 11.671c0.371 0 0.726 0.147 0.989 0.408 0.253 0.251 0.409 0.599 0.409 0.983v5.877c0 0.369-0.147 0.723-0.409 0.984-0.253 0.252-0.603 0.408-0.988 0.408-0 0-0 0-0 0h-9.627c-0 0-0 0-0 0-0.386 0-0.735-0.156-0.988-0.408l0 0c-0.253-0.251-0.409-0.599-0.409-0.983v-5.877c0-0.369 0.147-0.723 0.409-0.984 0.253-0.252 0.603-0.408 0.988-0.408 0 0 0 0 0.001 0h9.627zM20.814 12.598h-9.627c-0.124 0-0.242 0.049-0.329 0.136-0.084 0.084-0.137 0.2-0.137 0.328v5.877c0.001 0.256 0.209 0.464 0.465 0.464 0 0 0.001 0 0.001 0h9.627c0.124 0 0.242-0.049 0.33-0.136 0.084-0.084 0.136-0.2 0.136-0.328v-5.877c0-0.123-0.049-0.241-0.136-0.328-0.084-0.084-0.201-0.136-0.329-0.136-0 0-0 0-0 0h0zM12.74 17.544h6.524c0.118 0 0.232 0.045 0.318 0.125 0.091 0.085 0.148 0.205 0.148 0.339 0 0.111-0.040 0.214-0.105 0.294l0.001-0.001c-0.074 0.091-0.181 0.151-0.298 0.167l-0.063 0.004h-6.524c-0 0-0 0-0 0-0.123 0-0.235-0.047-0.318-0.125l0 0c-0.091-0.085-0.148-0.205-0.148-0.339 0-0.111 0.039-0.214 0.105-0.293l-0.001 0.001c0.075-0.091 0.181-0.151 0.298-0.167l0.063-0.004zM18.798 15.38c0.165 0 0.323 0.065 0.439 0.181 0.112 0.112 0.182 0.266 0.182 0.437s-0.069 0.325-0.182 0.437l-0 0c-0.113 0.112-0.268 0.181-0.439 0.181s-0.327-0.069-0.439-0.181l0 0c-0.112-0.112-0.182-0.266-0.182-0.437s0.069-0.325 0.182-0.437l0-0c0.113-0.112 0.268-0.181 0.439-0.181 0 0 0 0 0 0v0zM15.073 15.38c0 0 0 0 0 0 0.171 0 0.327 0.069 0.439 0.181l-0-0c0.112 0.112 0.182 0.266 0.182 0.437s-0.069 0.325-0.182 0.437l-0 0c-0.113 0.112-0.268 0.181-0.439 0.181s-0.327-0.069-0.439-0.181l0 0c-0.112-0.112-0.182-0.266-0.182-0.437s0.069-0.325 0.182-0.437l0-0c0.113-0.112 0.268-0.181 0.439-0.181 0 0 0 0 0 0v0zM13.209 15.38c0.165 0 0.323 0.065 0.439 0.181 0.112 0.112 0.182 0.266 0.182 0.437s-0.069 0.325-0.182 0.437l-0 0c-0.113 0.112-0.268 0.181-0.439 0.181s-0.327-0.069-0.439-0.181l0 0c-0.112-0.112-0.182-0.266-0.182-0.437s0.069-0.325 0.182-0.437l0-0c0.113-0.112 0.268-0.181 0.439-0.181 0 0 0 0 0 0v0zM16.937 15.38c0 0 0 0 0 0 0.171 0 0.327 0.069 0.439 0.181l-0-0c0.112 0.112 0.182 0.266 0.182 0.437s-0.069 0.325-0.182 0.437l-0 0c-0.113 0.112-0.268 0.181-0.439 0.181s-0.327-0.069-0.439-0.181l0 0c-0.112-0.112-0.182-0.266-0.182-0.437s0.069-0.325 0.182-0.437l0-0c0.113-0.112 0.268-0.181 0.439-0.181 0 0 0 0 0 0v0zM12.274 13.525c0 0 0 0 0 0 0.171 0 0.327 0.069 0.439 0.181l-0-0c0.112 0.112 0.182 0.266 0.182 0.437s-0.069 0.325-0.182 0.437l-0 0c-0.113 0.112-0.268 0.181-0.439 0.181s-0.327-0.069-0.439-0.181l0 0c-0.112-0.112-0.182-0.266-0.182-0.437s0.069-0.325 0.182-0.437l0-0c0.113-0.112 0.268-0.181 0.439-0.181 0 0 0 0 0 0v0zM14.134 13.525c0 0 0 0 0 0 0.171 0 0.327 0.069 0.439 0.181l-0-0c0.112 0.112 0.182 0.266 0.182 0.437s-0.069 0.325-0.182 0.437l-0 0c-0.113 0.112-0.268 0.181-0.439 0.181s-0.327-0.069-0.439-0.181l0 0c-0.112-0.112-0.182-0.266-0.182-0.437s0.069-0.325 0.182-0.437l0-0c0.113-0.112 0.268-0.181 0.439-0.181 0 0 0 0 0 0v0zM15.998 13.525c0 0 0 0 0 0 0.171 0 0.327 0.069 0.439 0.181l-0-0c0.112 0.112 0.182 0.266 0.182 0.437s-0.069 0.325-0.182 0.437l-0 0c-0.113 0.112-0.268 0.181-0.439 0.181s-0.327-0.069-0.439-0.181l0 0c-0.112-0.112-0.182-0.266-0.182-0.437s0.069-0.325 0.182-0.437l0-0c0.113-0.112 0.268-0.181 0.439-0.181 0 0 0 0 0 0v0zM17.862 13.525c0 0 0 0 0 0 0.171 0 0.327 0.069 0.439 0.181l-0-0c0.112 0.112 0.182 0.266 0.182 0.437s-0.069 0.325-0.182 0.437l-0 0c-0.113 0.112-0.268 0.181-0.439 0.181s-0.327-0.069-0.439-0.181l0 0c-0.112-0.112-0.182-0.266-0.182-0.437s0.069-0.325 0.182-0.437l0-0c0.113-0.112 0.268-0.181 0.439-0.181 0 0 0 0 0 0v0zM19.727 13.525c0 0 0 0 0 0 0.171 0 0.327 0.069 0.439 0.181l-0-0c0.117 0.116 0.182 0.273 0.182 0.437s-0.066 0.321-0.182 0.437c-0.113 0.112-0.268 0.181-0.439 0.181s-0.327-0.069-0.439-0.181l0 0c-0.112-0.112-0.182-0.266-0.182-0.437s0.069-0.325 0.182-0.437l0-0c0.113-0.112 0.268-0.181 0.439-0.181 0 0 0 0 0 0h-0z"></path>
</symbol>
<symbol id="icon-about-1" viewBox="0 0 32 32">
<path  fill="#ec7979" style="stroke: var(--color1, #ec7979)" stroke-linejoin="round" stroke-linecap="round" stroke-miterlimit="4" stroke-width="1.2862" d="M14.404 19.414v0zM16 9.855v0zM20.345 11.655v0zM22.145 16v0zM10.538 16v0zM12.138 12.137l-0.483-0.483 0.483 0.483zM13.586 18.414c-0.618-0.618-1-1.471-1-2.414 0-1.885 1.528-3.414 3.414-3.414s3.414 1.528 3.414 3.414c0 0.943-0.382 1.796-1 2.414v0l-0.374 0.373c-0.417 0.417-0.675 0.993-0.675 1.629 0 0 0 0 0 0v0 0.363c0 0 0 0 0 0 0 0.754-0.611 1.365-1.365 1.365-0 0-0 0-0 0h0c-0 0-0 0-0 0-0.754 0-1.365-0.611-1.365-1.365 0-0 0-0 0-0v0-0.363c0-0.611-0.243-1.198-0.675-1.629l-0.374-0.373z"></path>
</symbol>
</defs>
</svg>
